<?xml version="1.0" encoding="utf-8"?>
<!-- Generator: Adobe Illustrator 19.2.1, SVG Export Plug-In . SVG Version: 6.00 Build 0)  -->
<svg version="1.1" id="layer" xmlns="http://www.w3.org/2000/svg" xmlns:xlink="http://www.w3.org/1999/xlink" x="0px" y="0px"
	 viewBox="0 0 652 652" style="enable-background:new 0 0 652 652;" xml:space="preserve">
<style type="text/css">
	.st0{fill:#B4B4B5;}
	.st1{fill-rule:evenodd;clip-rule:evenodd;fill:#005BAB;}
</style>
<polygon class="st0" points="26.5,494.1 37.6,494.1 37.6,467 56.5,467 56.5,457.2 37.6,457.2 37.6,441.9 57.4,441.9 57.4,432.2 
	26.5,432.2 "/>
<path class="st0" d="M73.9,463c0-10.9,4.6-22.1,15.6-22.1c11.1,0,15.6,11.2,15.6,22.1c0,11.2-4.2,22.5-15.6,22.5
	S73.9,474.2,73.9,463 M62.2,463c0,19,9.4,32.2,27.3,32.2c17.6,0,27.3-13.5,27.3-32.2c0-18.7-9.8-31.9-27.3-31.9
	C71.8,431.1,62.2,444,62.2,463z"/>
<polygon class="st0" points="125.1,494.1 135.8,494.1 135.8,447.8 136,447.8 157.3,494.1 170.9,494.1 170.9,432.2 160.2,432.2 
	160.2,478.5 160.1,478.5 138.8,432.2 125.1,432.2 "/>
<path class="st0" d="M193.1,441.9h6.2c9.3,0,18.4,7.7,18.4,21.2c0,13.5-9,21.2-18.4,21.2h-6.2V441.9z M181.9,494.1h15.2
	c17.1,0,32.2-6.4,32.2-31c0-24.6-15.1-31-32.2-31h-15.2V494.1z"/>
<path class="st0" d="M232.4,494.1h11.6l4.9-14.2h22.6l4.8,14.2h12.4l-21.9-62h-12.6L232.4,494.1z M268.3,470.2H252l8.1-25.6h0.2
	L268.3,470.2z"/>
<polygon class="st0" points="290.8,494.1 329.4,494.1 329.4,484.4 302.4,484.4 328.8,442.3 328.8,432.2 291.8,432.2 291.8,441.9 
	316.9,441.9 290.8,484 "/>
<rect x="336.4" y="432.2" class="st0" width="11.2" height="62"/>
<path class="st0" d="M367.1,463c0-10.9,4.6-22.1,15.6-22.1c11.1,0,15.6,11.2,15.6,22.1c0,11.2-4.2,22.5-15.6,22.5
	S367.1,474.2,367.1,463 M355.4,463c0,19,9.4,32.2,27.3,32.2c17.6,0,27.3-13.5,27.3-32.2c0-18.7-9.8-31.9-27.3-31.9
	C365,431.1,355.4,444,355.4,463z"/>
<polygon class="st0" points="418.3,494.1 428.9,494.1 428.9,447.8 429.1,447.8 450.4,494.1 464.1,494.1 464.1,432.2 453.4,432.2 
	453.4,478.5 453.2,478.5 432,432.2 418.3,432.2 "/>
<polygon class="st0" points="475,494.1 508.1,494.1 508.1,484.4 486.2,484.4 486.2,467 506.1,467 506.1,457.2 486.2,457.2 
	486.2,441.9 507.9,441.9 507.9,432.2 475,432.2 "/>
<path class="st0" d="M26.5,571h19.5c7,0,19.6-2.3,19.6-17.9c0-7.6-5.2-13.3-12.8-14.1v-0.2c6.6-1.3,11.1-6.5,11.1-13.8
	c0-13.6-10.8-15.9-18-15.9H26.5V571z M37.6,518.8h4.3c5.1,0,10.8,0.5,10.8,7.7c0,6.4-5.8,7.5-10.5,7.5h-4.6V518.8z M37.6,543.3h5.3
	c5.6,0,11.5,1.2,11.5,9.3c0,7.2-6.3,8.6-11.5,8.6h-5.3V543.3z"/>
<path class="st0" d="M72.9,571H84v-25.7h3.6c4.7,0,6.1,1.8,7.7,6.4l6.7,19.3h12.4l-8.9-24.2c-1.1-2.7-2.9-6.1-5.9-6.4v-0.2
	c7.1-1.1,11.5-7.1,11.5-14.4c0-17.2-14.3-16.8-26.3-16.8H72.9V571z M84,518.8h3.7c5.6,0,11.8,0.6,11.8,8.1c0,7.7-6.3,8.6-11.8,8.6
	H84V518.8z"/>
<path class="st0" d="M120.8,548.6c0,16.6,8.5,23.4,22.7,23.4c14.3,0,22.7-6.8,22.7-23.4V509h-11.2v35.8c0,10.6-3,17.5-11.6,17.5
	c-8.5,0-11.6-6.9-11.6-17.5V509h-11.2V548.6z"/>
<polygon class="st0" points="176.9,571 187.6,571 187.6,524.7 187.7,524.7 209,571 222.7,571 222.7,509 212,509 212,555.4 
	211.8,555.4 190.6,509 176.9,509 "/>
<path class="st0" d="M242.6,539.8c0-10.9,4.5-22.1,15.6-22.1c11.1,0,15.6,11.2,15.6,22.1c0,11.2-4.2,22.5-15.6,22.5
	S242.6,551,242.6,539.8 M230.9,539.8c0,19,9.4,32.2,27.3,32.2c17.6,0,27.3-13.5,27.3-32.2c0-18.7-9.8-31.9-27.3-31.9
	C240.5,508,230.9,520.8,230.9,539.8z"/>
<polygon class="st0" points="312.4,571 323.6,571 323.6,542.2 323.7,542.2 343.7,571 358.3,571 334.5,538.2 357.4,509 343.7,509 
	323.6,535.7 323.6,509 312.4,509 "/>
<polygon class="st0" points="364.2,571 397.3,571 397.3,561.2 375.4,561.2 375.4,543.8 395.3,543.8 395.3,534.1 375.4,534.1 
	375.4,518.8 397.1,518.8 397.1,509 364.2,509 "/>
<path class="st0" d="M438.2,510.2c-4.1-1.5-8.5-2.2-13.3-2.2c-9.8,0-19.5,5.1-19.5,18.9c0,20.5,24.4,15.6,24.4,27.4
	c0,5.6-5.7,8-9.9,8c-4.4,0-8.8-1.5-12.6-3.8l-1,11.2c5.5,1.5,8.2,2.4,14.3,2.4c11.3,0,20.9-5.1,20.9-18.7c0-20.8-24.4-16.2-24.4-27
	c0-6.7,5-8.6,8.8-8.6c3.9,0,7.8,1,11.3,2.7L438.2,510.2z"/>
<path class="st0" d="M481.1,510.2c-4.1-1.5-8.5-2.2-13.3-2.2c-9.8,0-19.5,5.1-19.5,18.9c0,20.5,24.4,15.6,24.4,27.4
	c0,5.6-5.7,8-9.9,8c-4.4,0-8.8-1.5-12.6-3.8l-1,11.2c5.5,1.5,8.2,2.4,14.3,2.4c11.3,0,20.9-5.1,20.9-18.7c0-20.8-24.4-16.2-24.4-27
	c0-6.7,4.9-8.6,8.8-8.6c3.9,0,7.8,1,11.3,2.7L481.1,510.2z"/>
<polygon class="st0" points="493.1,571 526,571 526,561.2 504.3,561.2 504.3,509 493.1,509 "/>
<polygon class="st0" points="531.7,571 564.7,571 564.7,561.2 542.8,561.2 542.8,543.8 562.7,543.8 562.7,534.1 542.8,534.1 
	542.8,518.8 564.5,518.8 564.5,509 531.7,509 "/>
<path class="st0" d="M573.7,571h11.2v-25.7h3.6c4.7,0,6.1,1.8,7.7,6.4l6.7,19.3h12.4l-8.9-24.2c-1.1-2.7-2.9-6.1-5.9-6.4v-0.2
	c7.1-1.1,11.5-7.1,11.5-14.4c0-17.2-14.3-16.8-26.3-16.8h-12.1V571z M584.9,518.8h3.7c5.6,0,11.8,0.6,11.8,8.1
	c0,7.7-6.3,8.6-11.8,8.6h-3.7V518.8z"/>
<rect x="25.3" y="72.1" class="st1" width="153.2" height="49.3"/>
<rect x="25.3" y="198.6" class="st1" width="153.2" height="49.3"/>
<path class="st1" d="M231.5,198.6h67.6c49.9,0,90.8,40.8,90.8,90.8c0,49.9-40.8,90.8-90.8,90.8h-67.6V331H299
	c22.9,0,41.6-18.7,41.6-41.6c0-22.9-18.7-41.6-41.6-41.6h-67.5V198.6z"/>
<polygon class="st1" points="612.1,72.1 455.4,226.1 612.1,380.1 543.2,380.1 414.4,253.5 414.4,198.6 543.2,72.1 "/>
</svg>
